<svg id="Layer_1" enable-background="new 0 0 512 512" height="512" viewBox="0 0 512 512" width="512" xmlns="http://www.w3.org/2000/svg"><path d="m494.933 216.448c0 142.845-99.868 265.74-238.933 295.552-139.371-29.867-238.933-153.024-238.933-295.552v-165.259c82.792 0 161.037-15.236 238.933-51.189 123.735 57.099 234.299 50.659 237.003 51.2z" fill="#6994ff"/><path d="m494.933 216.448c0 63.904-20.021 123.915-54.667 173.376-83.35 83.195-216.396 82.365-298.502 1.749-56.366-55.344-90.564-132.223-90.564-215.754v-125.355c70.773-3.595 140.299-20.693 204.8-50.464 74.507 34.382 152.861 51.189 236.949 51.189.1.02-.038-7.85 1.984 165.259z" fill="#80aaff"/><path d="m366.933 190.059v168.341h-221.866v-168.341l106.389-87.04c.18-.184 4.488-1.267 9.067-.011.1 0 .534.43 106.41 87.051z" fill="#f2f2f2"/><path d="m215.659 270.741h80.683v87.659h-80.683z" fill="#999"/><path d="m401.067 341.333c0 9.429-7.637 17.067-17.067 17.067h-256c-9.429 0-17.067-7.637-17.067-17.067s7.637-17.067 17.067-17.067h256c9.429.001 17.067 7.638 17.067 17.067z" fill="#a07765"/><path d="m397.323 232.533c-5.846 7.308-16.555 8.583-23.989 2.656-12.237-9.79-103.886-83.109-117.333-93.867-13.448 10.759-105.094 84.074-117.333 93.867-7.371 5.887-18.101 4.693-23.989-2.656-5.888-7.371-4.704-18.102 2.656-23.99 139.878-111.903 129.316-104.211 134.121-105.524.448-.459 8.435-2.287 15.211 3.125l128 102.4c7.36 5.888 8.544 16.619 2.656 23.989z" fill="#e0b7a3"/></svg>